<mxfile host="app.diagrams.net" modified="2023-04-30T23:16:18.948Z" agent="Mozilla/5.0 (Windows NT 10.0; Win64; x64) AppleWebKit/537.36 (KHTML, like Gecko) Chrome/111.0.0.0 Safari/537.36 OPR/97.0.0.0" etag="aSu646KM2xFoRfMJtxhU" version="21.2.3" type="device" pages="2">
  <diagram name="DER" id="ckhmwO_yFgzI3L8v9k4U">
    <mxGraphModel dx="841" dy="468" grid="0" gridSize="10" guides="1" tooltips="1" connect="1" arrows="1" fold="1" page="0" pageScale="1" pageWidth="827" pageHeight="1169" background="none" math="0" shadow="0">
      <root>
        <mxCell id="0" />
        <mxCell id="1" parent="0" />
        <mxCell id="BNZzz1rlV_T0hLlSipQ5-1" value="DER" style="text;html=1;align=center;verticalAlign=middle;resizable=0;points=[];autosize=1;strokeColor=none;fillColor=none;" vertex="1" parent="1">
          <mxGeometry x="25" y="8" width="50" height="30" as="geometry" />
        </mxCell>
        <mxCell id="BNZzz1rlV_T0hLlSipQ5-29" style="edgeStyle=orthogonalEdgeStyle;rounded=0;orthogonalLoop=1;jettySize=auto;html=1;entryX=0;entryY=0.5;entryDx=0;entryDy=0;endArrow=none;endFill=0;" edge="1" parent="1" source="BNZzz1rlV_T0hLlSipQ5-2" target="BNZzz1rlV_T0hLlSipQ5-26">
          <mxGeometry relative="1" as="geometry">
            <Array as="points">
              <mxPoint x="135" y="265" />
            </Array>
          </mxGeometry>
        </mxCell>
        <mxCell id="BNZzz1rlV_T0hLlSipQ5-46" style="edgeStyle=orthogonalEdgeStyle;rounded=0;orthogonalLoop=1;jettySize=auto;html=1;exitX=0;exitY=0;exitDx=0;exitDy=0;entryX=0.5;entryY=1;entryDx=0;entryDy=0;" edge="1" parent="1" source="BNZzz1rlV_T0hLlSipQ5-2" target="BNZzz1rlV_T0hLlSipQ5-44">
          <mxGeometry relative="1" as="geometry" />
        </mxCell>
        <mxCell id="BNZzz1rlV_T0hLlSipQ5-47" style="edgeStyle=orthogonalEdgeStyle;rounded=0;orthogonalLoop=1;jettySize=auto;html=1;entryX=0.5;entryY=1;entryDx=0;entryDy=0;" edge="1" parent="1" source="BNZzz1rlV_T0hLlSipQ5-2" target="BNZzz1rlV_T0hLlSipQ5-45">
          <mxGeometry relative="1" as="geometry" />
        </mxCell>
        <mxCell id="BNZzz1rlV_T0hLlSipQ5-2" value="Cliente" style="html=1;whiteSpace=wrap;" vertex="1" parent="1">
          <mxGeometry x="80" y="190" width="110" height="50" as="geometry" />
        </mxCell>
        <mxCell id="BNZzz1rlV_T0hLlSipQ5-3" value="Object" style="html=1;whiteSpace=wrap;" vertex="1" parent="1">
          <mxGeometry x="160" y="20" width="110" height="50" as="geometry" />
        </mxCell>
        <mxCell id="BNZzz1rlV_T0hLlSipQ5-15" style="edgeStyle=orthogonalEdgeStyle;rounded=0;orthogonalLoop=1;jettySize=auto;html=1;entryX=0.5;entryY=0;entryDx=0;entryDy=0;endArrow=none;endFill=0;" edge="1" parent="1" source="BNZzz1rlV_T0hLlSipQ5-4" target="BNZzz1rlV_T0hLlSipQ5-14">
          <mxGeometry relative="1" as="geometry" />
        </mxCell>
        <mxCell id="BNZzz1rlV_T0hLlSipQ5-18" style="edgeStyle=orthogonalEdgeStyle;rounded=0;orthogonalLoop=1;jettySize=auto;html=1;entryX=0;entryY=0.5;entryDx=0;entryDy=0;endArrow=none;endFill=0;" edge="1" parent="1" source="BNZzz1rlV_T0hLlSipQ5-4" target="BNZzz1rlV_T0hLlSipQ5-17">
          <mxGeometry relative="1" as="geometry" />
        </mxCell>
        <mxCell id="BNZzz1rlV_T0hLlSipQ5-22" style="edgeStyle=orthogonalEdgeStyle;rounded=0;orthogonalLoop=1;jettySize=auto;html=1;endArrow=none;endFill=0;" edge="1" parent="1" source="BNZzz1rlV_T0hLlSipQ5-4" target="BNZzz1rlV_T0hLlSipQ5-20">
          <mxGeometry relative="1" as="geometry" />
        </mxCell>
        <mxCell id="BNZzz1rlV_T0hLlSipQ5-4" value="Camion" style="html=1;whiteSpace=wrap;" vertex="1" parent="1">
          <mxGeometry x="470" y="420" width="110" height="50" as="geometry" />
        </mxCell>
        <mxCell id="BNZzz1rlV_T0hLlSipQ5-5" value="Carga" style="html=1;whiteSpace=wrap;" vertex="1" parent="1">
          <mxGeometry x="470" y="600" width="110" height="50" as="geometry" />
        </mxCell>
        <mxCell id="BNZzz1rlV_T0hLlSipQ5-12" style="edgeStyle=orthogonalEdgeStyle;rounded=0;orthogonalLoop=1;jettySize=auto;html=1;entryX=0;entryY=0.5;entryDx=0;entryDy=0;endArrow=none;endFill=0;" edge="1" parent="1" source="BNZzz1rlV_T0hLlSipQ5-7" target="BNZzz1rlV_T0hLlSipQ5-11">
          <mxGeometry relative="1" as="geometry">
            <mxPoint x="350" y="445" as="targetPoint" />
          </mxGeometry>
        </mxCell>
        <mxCell id="BNZzz1rlV_T0hLlSipQ5-7" value="Conductor" style="html=1;whiteSpace=wrap;" vertex="1" parent="1">
          <mxGeometry x="200" y="420" width="110" height="50" as="geometry" />
        </mxCell>
        <mxCell id="BNZzz1rlV_T0hLlSipQ5-8" value="Ruta" style="html=1;whiteSpace=wrap;" vertex="1" parent="1">
          <mxGeometry x="730" y="420" width="110" height="50" as="geometry" />
        </mxCell>
        <mxCell id="BNZzz1rlV_T0hLlSipQ5-25" value="" style="edgeStyle=orthogonalEdgeStyle;rounded=0;orthogonalLoop=1;jettySize=auto;html=1;endArrow=none;endFill=0;" edge="1" parent="1" source="BNZzz1rlV_T0hLlSipQ5-9" target="BNZzz1rlV_T0hLlSipQ5-20">
          <mxGeometry relative="1" as="geometry" />
        </mxCell>
        <mxCell id="BNZzz1rlV_T0hLlSipQ5-9" value="Mantenimiento" style="html=1;whiteSpace=wrap;" vertex="1" parent="1">
          <mxGeometry x="470" y="210" width="110" height="50" as="geometry" />
        </mxCell>
        <mxCell id="BNZzz1rlV_T0hLlSipQ5-13" style="edgeStyle=orthogonalEdgeStyle;rounded=0;orthogonalLoop=1;jettySize=auto;html=1;entryX=0;entryY=0.5;entryDx=0;entryDy=0;endArrow=none;endFill=0;" edge="1" parent="1" source="BNZzz1rlV_T0hLlSipQ5-11" target="BNZzz1rlV_T0hLlSipQ5-4">
          <mxGeometry relative="1" as="geometry" />
        </mxCell>
        <mxCell id="BNZzz1rlV_T0hLlSipQ5-11" value="conduce" style="rhombus;whiteSpace=wrap;html=1;" vertex="1" parent="1">
          <mxGeometry x="360" y="420" width="66.5" height="50" as="geometry" />
        </mxCell>
        <mxCell id="BNZzz1rlV_T0hLlSipQ5-16" style="edgeStyle=orthogonalEdgeStyle;rounded=0;orthogonalLoop=1;jettySize=auto;html=1;endArrow=none;endFill=0;" edge="1" parent="1" source="BNZzz1rlV_T0hLlSipQ5-14" target="BNZzz1rlV_T0hLlSipQ5-5">
          <mxGeometry relative="1" as="geometry" />
        </mxCell>
        <mxCell id="BNZzz1rlV_T0hLlSipQ5-14" value="lleva" style="rhombus;whiteSpace=wrap;html=1;" vertex="1" parent="1">
          <mxGeometry x="491.75" y="510" width="66.5" height="50" as="geometry" />
        </mxCell>
        <mxCell id="BNZzz1rlV_T0hLlSipQ5-19" style="edgeStyle=orthogonalEdgeStyle;rounded=0;orthogonalLoop=1;jettySize=auto;html=1;entryX=0;entryY=0.5;entryDx=0;entryDy=0;endArrow=none;endFill=0;" edge="1" parent="1" source="BNZzz1rlV_T0hLlSipQ5-17" target="BNZzz1rlV_T0hLlSipQ5-8">
          <mxGeometry relative="1" as="geometry" />
        </mxCell>
        <mxCell id="BNZzz1rlV_T0hLlSipQ5-17" value="se le asigna" style="rhombus;whiteSpace=wrap;html=1;" vertex="1" parent="1">
          <mxGeometry x="620" y="415" width="80" height="60" as="geometry" />
        </mxCell>
        <mxCell id="BNZzz1rlV_T0hLlSipQ5-20" value="se le realiza" style="rhombus;whiteSpace=wrap;html=1;" vertex="1" parent="1">
          <mxGeometry x="485" y="320" width="80" height="60" as="geometry" />
        </mxCell>
        <mxCell id="BNZzz1rlV_T0hLlSipQ5-30" style="edgeStyle=orthogonalEdgeStyle;rounded=0;orthogonalLoop=1;jettySize=auto;html=1;entryX=0.5;entryY=0;entryDx=0;entryDy=0;endArrow=none;endFill=0;" edge="1" parent="1" source="BNZzz1rlV_T0hLlSipQ5-26" target="BNZzz1rlV_T0hLlSipQ5-27">
          <mxGeometry relative="1" as="geometry">
            <Array as="points">
              <mxPoint x="372" y="265" />
            </Array>
          </mxGeometry>
        </mxCell>
        <mxCell id="BNZzz1rlV_T0hLlSipQ5-26" value="realiza" style="rhombus;whiteSpace=wrap;html=1;" vertex="1" parent="1">
          <mxGeometry x="210" y="240" width="66.5" height="50" as="geometry" />
        </mxCell>
        <mxCell id="BNZzz1rlV_T0hLlSipQ5-33" style="edgeStyle=orthogonalEdgeStyle;rounded=0;orthogonalLoop=1;jettySize=auto;html=1;entryX=0.5;entryY=0;entryDx=0;entryDy=0;endArrow=none;endFill=0;" edge="1" parent="1" source="BNZzz1rlV_T0hLlSipQ5-27" target="BNZzz1rlV_T0hLlSipQ5-31">
          <mxGeometry relative="1" as="geometry">
            <Array as="points">
              <mxPoint x="379" y="300" />
              <mxPoint x="379" y="300" />
            </Array>
          </mxGeometry>
        </mxCell>
        <mxCell id="BNZzz1rlV_T0hLlSipQ5-37" style="edgeStyle=orthogonalEdgeStyle;rounded=0;orthogonalLoop=1;jettySize=auto;html=1;exitX=0.25;exitY=0;exitDx=0;exitDy=0;entryX=0.5;entryY=1;entryDx=0;entryDy=0;endArrow=none;endFill=0;" edge="1" parent="1" source="BNZzz1rlV_T0hLlSipQ5-27" target="BNZzz1rlV_T0hLlSipQ5-36">
          <mxGeometry relative="1" as="geometry" />
        </mxCell>
        <mxCell id="BNZzz1rlV_T0hLlSipQ5-39" style="edgeStyle=orthogonalEdgeStyle;rounded=0;orthogonalLoop=1;jettySize=auto;html=1;exitX=0.25;exitY=0;exitDx=0;exitDy=0;entryX=0.5;entryY=1;entryDx=0;entryDy=0;endArrow=none;endFill=0;" edge="1" parent="1" source="BNZzz1rlV_T0hLlSipQ5-27" target="BNZzz1rlV_T0hLlSipQ5-38">
          <mxGeometry relative="1" as="geometry">
            <Array as="points">
              <mxPoint x="385" y="240" />
            </Array>
          </mxGeometry>
        </mxCell>
        <mxCell id="BNZzz1rlV_T0hLlSipQ5-41" style="edgeStyle=orthogonalEdgeStyle;rounded=0;orthogonalLoop=1;jettySize=auto;html=1;exitX=0.25;exitY=0;exitDx=0;exitDy=0;entryX=0.5;entryY=1;entryDx=0;entryDy=0;endArrow=none;endFill=0;" edge="1" parent="1" source="BNZzz1rlV_T0hLlSipQ5-27" target="BNZzz1rlV_T0hLlSipQ5-40">
          <mxGeometry relative="1" as="geometry">
            <Array as="points">
              <mxPoint x="355" y="240" />
            </Array>
          </mxGeometry>
        </mxCell>
        <mxCell id="BNZzz1rlV_T0hLlSipQ5-43" style="edgeStyle=orthogonalEdgeStyle;rounded=0;orthogonalLoop=1;jettySize=auto;html=1;exitX=0.75;exitY=0;exitDx=0;exitDy=0;entryX=0.5;entryY=1;entryDx=0;entryDy=0;endArrow=none;endFill=0;" edge="1" parent="1" source="BNZzz1rlV_T0hLlSipQ5-27" target="BNZzz1rlV_T0hLlSipQ5-42">
          <mxGeometry relative="1" as="geometry">
            <Array as="points">
              <mxPoint x="410" y="240" />
              <mxPoint x="410" y="215" />
              <mxPoint x="422" y="215" />
            </Array>
          </mxGeometry>
        </mxCell>
        <mxCell id="BNZzz1rlV_T0hLlSipQ5-27" value="Pedido de transporte" style="html=1;whiteSpace=wrap;" vertex="1" parent="1">
          <mxGeometry x="316.5" y="240" width="110" height="50" as="geometry" />
        </mxCell>
        <mxCell id="BNZzz1rlV_T0hLlSipQ5-32" style="edgeStyle=orthogonalEdgeStyle;rounded=0;orthogonalLoop=1;jettySize=auto;html=1;exitX=0.5;exitY=1;exitDx=0;exitDy=0;endArrow=none;endFill=0;" edge="1" parent="1" source="BNZzz1rlV_T0hLlSipQ5-31">
          <mxGeometry relative="1" as="geometry">
            <mxPoint x="480" y="420" as="targetPoint" />
            <Array as="points">
              <mxPoint x="379" y="380" />
              <mxPoint x="480" y="380" />
            </Array>
          </mxGeometry>
        </mxCell>
        <mxCell id="BNZzz1rlV_T0hLlSipQ5-31" value="es realizado" style="rhombus;whiteSpace=wrap;html=1;" vertex="1" parent="1">
          <mxGeometry x="338.25" y="310" width="81.75" height="60" as="geometry" />
        </mxCell>
        <mxCell id="BNZzz1rlV_T0hLlSipQ5-36" value="origen" style="ellipse;whiteSpace=wrap;html=1;" vertex="1" parent="1">
          <mxGeometry x="300" y="180" width="50" height="40" as="geometry" />
        </mxCell>
        <mxCell id="BNZzz1rlV_T0hLlSipQ5-38" value="destino" style="ellipse;whiteSpace=wrap;html=1;" vertex="1" parent="1">
          <mxGeometry x="360" y="180" width="50" height="40" as="geometry" />
        </mxCell>
        <mxCell id="BNZzz1rlV_T0hLlSipQ5-40" value="&lt;u&gt;id&lt;/u&gt;" style="ellipse;whiteSpace=wrap;html=1;" vertex="1" parent="1">
          <mxGeometry x="330" y="140" width="50" height="40" as="geometry" />
        </mxCell>
        <mxCell id="BNZzz1rlV_T0hLlSipQ5-42" value="id_Camion" style="ellipse;whiteSpace=wrap;html=1;" vertex="1" parent="1">
          <mxGeometry x="390" y="140" width="63.5" height="40" as="geometry" />
        </mxCell>
        <mxCell id="BNZzz1rlV_T0hLlSipQ5-44" value="nombre" style="ellipse;whiteSpace=wrap;html=1;" vertex="1" parent="1">
          <mxGeometry x="60" y="130" width="50" height="40" as="geometry" />
        </mxCell>
        <mxCell id="BNZzz1rlV_T0hLlSipQ5-45" value="id" style="ellipse;whiteSpace=wrap;html=1;" vertex="1" parent="1">
          <mxGeometry x="120" y="135" width="30" height="30" as="geometry" />
        </mxCell>
        <mxCell id="BNZzz1rlV_T0hLlSipQ5-52" style="edgeStyle=orthogonalEdgeStyle;rounded=0;orthogonalLoop=1;jettySize=auto;html=1;entryX=0.68;entryY=-0.04;entryDx=0;entryDy=0;entryPerimeter=0;endArrow=none;endFill=0;" edge="1" parent="1" source="BNZzz1rlV_T0hLlSipQ5-48" target="BNZzz1rlV_T0hLlSipQ5-4">
          <mxGeometry relative="1" as="geometry">
            <Array as="points">
              <mxPoint x="545" y="400" />
            </Array>
          </mxGeometry>
        </mxCell>
        <mxCell id="BNZzz1rlV_T0hLlSipQ5-48" value="carga_maxima" style="ellipse;whiteSpace=wrap;html=1;" vertex="1" parent="1">
          <mxGeometry x="550" y="370" width="110" height="40" as="geometry" />
        </mxCell>
        <mxCell id="BNZzz1rlV_T0hLlSipQ5-51" style="edgeStyle=orthogonalEdgeStyle;rounded=0;orthogonalLoop=1;jettySize=auto;html=1;exitX=0;exitY=0.5;exitDx=0;exitDy=0;entryX=0.75;entryY=1;entryDx=0;entryDy=0;endArrow=none;endFill=0;" edge="1" parent="1" source="BNZzz1rlV_T0hLlSipQ5-50" target="BNZzz1rlV_T0hLlSipQ5-4">
          <mxGeometry relative="1" as="geometry" />
        </mxCell>
        <mxCell id="BNZzz1rlV_T0hLlSipQ5-50" value="&lt;u&gt;id&lt;/u&gt;" style="ellipse;whiteSpace=wrap;html=1;" vertex="1" parent="1">
          <mxGeometry x="570" y="475" width="40" height="30" as="geometry" />
        </mxCell>
        <mxCell id="BNZzz1rlV_T0hLlSipQ5-76" style="edgeStyle=orthogonalEdgeStyle;rounded=0;orthogonalLoop=1;jettySize=auto;html=1;entryX=0.092;entryY=1;entryDx=0;entryDy=0;entryPerimeter=0;endArrow=none;endFill=0;" edge="1" parent="1" source="BNZzz1rlV_T0hLlSipQ5-53" target="BNZzz1rlV_T0hLlSipQ5-4">
          <mxGeometry relative="1" as="geometry">
            <Array as="points">
              <mxPoint x="490" y="510" />
              <mxPoint x="490" y="470" />
            </Array>
          </mxGeometry>
        </mxCell>
        <mxCell id="BNZzz1rlV_T0hLlSipQ5-53" value="disponibilidad" style="ellipse;whiteSpace=wrap;html=1;" vertex="1" parent="1">
          <mxGeometry x="400" y="490" width="80" height="40" as="geometry" />
        </mxCell>
        <mxCell id="BNZzz1rlV_T0hLlSipQ5-63" value="" style="ellipse;whiteSpace=wrap;html=1;" vertex="1" parent="1">
          <mxGeometry x="25" y="780" width="70" height="40" as="geometry" />
        </mxCell>
        <mxCell id="BNZzz1rlV_T0hLlSipQ5-64" value="" style="ellipse;whiteSpace=wrap;html=1;" vertex="1" parent="1">
          <mxGeometry x="35" y="790" width="70" height="40" as="geometry" />
        </mxCell>
        <mxCell id="BNZzz1rlV_T0hLlSipQ5-65" value="" style="ellipse;whiteSpace=wrap;html=1;" vertex="1" parent="1">
          <mxGeometry x="45" y="800" width="70" height="40" as="geometry" />
        </mxCell>
        <mxCell id="BNZzz1rlV_T0hLlSipQ5-66" value="" style="ellipse;whiteSpace=wrap;html=1;" vertex="1" parent="1">
          <mxGeometry x="55" y="810" width="70" height="40" as="geometry" />
        </mxCell>
        <mxCell id="BNZzz1rlV_T0hLlSipQ5-67" value="" style="ellipse;whiteSpace=wrap;html=1;" vertex="1" parent="1">
          <mxGeometry x="65" y="820" width="70" height="40" as="geometry" />
        </mxCell>
        <mxCell id="BNZzz1rlV_T0hLlSipQ5-68" value="" style="ellipse;whiteSpace=wrap;html=1;" vertex="1" parent="1">
          <mxGeometry x="75" y="830" width="70" height="40" as="geometry" />
        </mxCell>
        <mxCell id="BNZzz1rlV_T0hLlSipQ5-69" value="" style="ellipse;whiteSpace=wrap;html=1;" vertex="1" parent="1">
          <mxGeometry x="85" y="840" width="70" height="40" as="geometry" />
        </mxCell>
        <mxCell id="BNZzz1rlV_T0hLlSipQ5-70" value="" style="ellipse;whiteSpace=wrap;html=1;" vertex="1" parent="1">
          <mxGeometry x="95" y="850" width="70" height="40" as="geometry" />
        </mxCell>
        <mxCell id="BNZzz1rlV_T0hLlSipQ5-71" value="" style="ellipse;whiteSpace=wrap;html=1;" vertex="1" parent="1">
          <mxGeometry x="105" y="860" width="70" height="40" as="geometry" />
        </mxCell>
        <mxCell id="BNZzz1rlV_T0hLlSipQ5-72" value="" style="ellipse;whiteSpace=wrap;html=1;" vertex="1" parent="1">
          <mxGeometry x="115" y="870" width="70" height="40" as="geometry" />
        </mxCell>
        <mxCell id="BNZzz1rlV_T0hLlSipQ5-73" value="" style="ellipse;whiteSpace=wrap;html=1;" vertex="1" parent="1">
          <mxGeometry x="125" y="880" width="70" height="40" as="geometry" />
        </mxCell>
        <mxCell id="BNZzz1rlV_T0hLlSipQ5-74" value="" style="ellipse;whiteSpace=wrap;html=1;" vertex="1" parent="1">
          <mxGeometry x="135" y="890" width="70" height="40" as="geometry" />
        </mxCell>
        <mxCell id="BNZzz1rlV_T0hLlSipQ5-75" value="" style="ellipse;whiteSpace=wrap;html=1;" vertex="1" parent="1">
          <mxGeometry x="145" y="900" width="70" height="40" as="geometry" />
        </mxCell>
        <mxCell id="BNZzz1rlV_T0hLlSipQ5-78" style="edgeStyle=orthogonalEdgeStyle;rounded=0;orthogonalLoop=1;jettySize=auto;html=1;entryX=0;entryY=0.5;entryDx=0;entryDy=0;endArrow=none;endFill=0;" edge="1" parent="1" source="BNZzz1rlV_T0hLlSipQ5-77" target="BNZzz1rlV_T0hLlSipQ5-5">
          <mxGeometry relative="1" as="geometry">
            <Array as="points">
              <mxPoint x="130" y="345" />
              <mxPoint x="130" y="625" />
            </Array>
          </mxGeometry>
        </mxCell>
        <mxCell id="BNZzz1rlV_T0hLlSipQ5-80" style="edgeStyle=orthogonalEdgeStyle;rounded=0;orthogonalLoop=1;jettySize=auto;html=1;endArrow=none;endFill=0;" edge="1" parent="1" source="BNZzz1rlV_T0hLlSipQ5-77" target="BNZzz1rlV_T0hLlSipQ5-27">
          <mxGeometry relative="1" as="geometry">
            <Array as="points">
              <mxPoint x="330" y="345" />
            </Array>
          </mxGeometry>
        </mxCell>
        <mxCell id="BNZzz1rlV_T0hLlSipQ5-77" value="carga_del_pedido" style="whiteSpace=wrap;html=1;" vertex="1" parent="1">
          <mxGeometry x="155" y="315" width="120" height="60" as="geometry" />
        </mxCell>
        <mxCell id="BNZzz1rlV_T0hLlSipQ5-81" value="1,1" style="text;html=1;align=center;verticalAlign=middle;resizable=0;points=[];autosize=1;strokeColor=none;fillColor=none;" vertex="1" parent="1">
          <mxGeometry x="300" y="418" width="40" height="30" as="geometry" />
        </mxCell>
        <mxCell id="BNZzz1rlV_T0hLlSipQ5-82" value="1,1" style="text;html=1;align=center;verticalAlign=middle;resizable=0;points=[];autosize=1;strokeColor=none;fillColor=none;" vertex="1" parent="1">
          <mxGeometry x="430" y="418" width="40" height="30" as="geometry" />
        </mxCell>
        <mxCell id="BNZzz1rlV_T0hLlSipQ5-93" value="1,1" style="edgeStyle=orthogonalEdgeStyle;rounded=0;orthogonalLoop=1;jettySize=auto;html=1;entryX=0.5;entryY=0;entryDx=0;entryDy=0;endArrow=none;endFill=0;" edge="1" parent="1" source="BNZzz1rlV_T0hLlSipQ5-83" target="BNZzz1rlV_T0hLlSipQ5-92">
          <mxGeometry relative="1" as="geometry" />
        </mxCell>
        <mxCell id="BNZzz1rlV_T0hLlSipQ5-83" value="cliente" style="whiteSpace=wrap;html=1;" vertex="1" parent="1">
          <mxGeometry x="950" y="130" width="120" height="60" as="geometry" />
        </mxCell>
        <mxCell id="BNZzz1rlV_T0hLlSipQ5-94" value="1,N" style="edgeStyle=orthogonalEdgeStyle;rounded=0;orthogonalLoop=1;jettySize=auto;html=1;endArrow=none;endFill=0;" edge="1" parent="1" source="BNZzz1rlV_T0hLlSipQ5-84" target="BNZzz1rlV_T0hLlSipQ5-92">
          <mxGeometry relative="1" as="geometry">
            <Array as="points">
              <mxPoint x="1010" y="310" />
              <mxPoint x="1010" y="310" />
            </Array>
          </mxGeometry>
        </mxCell>
        <mxCell id="BNZzz1rlV_T0hLlSipQ5-112" value="1,N" style="edgeStyle=orthogonalEdgeStyle;rounded=0;orthogonalLoop=1;jettySize=auto;html=1;entryX=0;entryY=0.5;entryDx=0;entryDy=0;endArrow=none;endFill=0;" edge="1" parent="1" source="BNZzz1rlV_T0hLlSipQ5-84" target="BNZzz1rlV_T0hLlSipQ5-110">
          <mxGeometry relative="1" as="geometry" />
        </mxCell>
        <mxCell id="6EVmqp9yAp4Sq5_GeR_r-2" style="edgeStyle=orthogonalEdgeStyle;rounded=0;orthogonalLoop=1;jettySize=auto;html=1;exitX=1;exitY=1;exitDx=0;exitDy=0;entryX=0.5;entryY=0;entryDx=0;entryDy=0;endArrow=none;endFill=0;" edge="1" parent="1" source="BNZzz1rlV_T0hLlSipQ5-84" target="6EVmqp9yAp4Sq5_GeR_r-1">
          <mxGeometry relative="1" as="geometry" />
        </mxCell>
        <mxCell id="BNZzz1rlV_T0hLlSipQ5-84" value="carga" style="whiteSpace=wrap;html=1;" vertex="1" parent="1">
          <mxGeometry x="950" y="320" width="120" height="60" as="geometry" />
        </mxCell>
        <mxCell id="BNZzz1rlV_T0hLlSipQ5-100" value="1,N" style="edgeStyle=orthogonalEdgeStyle;rounded=0;orthogonalLoop=1;jettySize=auto;html=1;endArrow=none;endFill=0;" edge="1" parent="1" source="BNZzz1rlV_T0hLlSipQ5-85" target="BNZzz1rlV_T0hLlSipQ5-98">
          <mxGeometry relative="1" as="geometry" />
        </mxCell>
        <mxCell id="BNZzz1rlV_T0hLlSipQ5-102" value="1,1" style="edgeStyle=orthogonalEdgeStyle;rounded=0;orthogonalLoop=1;jettySize=auto;html=1;entryX=0;entryY=0.5;entryDx=0;entryDy=0;endArrow=none;endFill=0;" edge="1" parent="1" source="BNZzz1rlV_T0hLlSipQ5-85" target="BNZzz1rlV_T0hLlSipQ5-101">
          <mxGeometry relative="1" as="geometry" />
        </mxCell>
        <mxCell id="BNZzz1rlV_T0hLlSipQ5-108" style="edgeStyle=orthogonalEdgeStyle;rounded=0;orthogonalLoop=1;jettySize=auto;html=1;exitX=1;exitY=0;exitDx=0;exitDy=0;entryX=0;entryY=0.5;entryDx=0;entryDy=0;endArrow=none;endFill=0;" edge="1" parent="1" source="BNZzz1rlV_T0hLlSipQ5-85" target="BNZzz1rlV_T0hLlSipQ5-107">
          <mxGeometry relative="1" as="geometry">
            <Array as="points">
              <mxPoint x="1320" y="320" />
              <mxPoint x="1320" y="253" />
            </Array>
          </mxGeometry>
        </mxCell>
        <mxCell id="ED75kGVRMtymTF9W4C5z-3" value="1,1" style="edgeLabel;html=1;align=center;verticalAlign=middle;resizable=0;points=[];" vertex="1" connectable="0" parent="BNZzz1rlV_T0hLlSipQ5-108">
          <mxGeometry x="-0.4731" y="-1" relative="1" as="geometry">
            <mxPoint as="offset" />
          </mxGeometry>
        </mxCell>
        <mxCell id="BNZzz1rlV_T0hLlSipQ5-111" value="1,1" style="edgeStyle=orthogonalEdgeStyle;rounded=0;orthogonalLoop=1;jettySize=auto;html=1;endArrow=none;endFill=0;" edge="1" parent="1" source="BNZzz1rlV_T0hLlSipQ5-85" target="BNZzz1rlV_T0hLlSipQ5-110">
          <mxGeometry relative="1" as="geometry" />
        </mxCell>
        <mxCell id="BNZzz1rlV_T0hLlSipQ5-85" value="camion" style="whiteSpace=wrap;html=1;" vertex="1" parent="1">
          <mxGeometry x="1210" y="320" width="120" height="60" as="geometry" />
        </mxCell>
        <mxCell id="BNZzz1rlV_T0hLlSipQ5-99" value="1,1" style="edgeStyle=orthogonalEdgeStyle;rounded=0;orthogonalLoop=1;jettySize=auto;html=1;entryX=0.5;entryY=0;entryDx=0;entryDy=0;endArrow=none;endFill=0;" edge="1" parent="1" source="BNZzz1rlV_T0hLlSipQ5-87" target="BNZzz1rlV_T0hLlSipQ5-98">
          <mxGeometry relative="1" as="geometry" />
        </mxCell>
        <mxCell id="BNZzz1rlV_T0hLlSipQ5-87" value="conductor" style="whiteSpace=wrap;html=1;" vertex="1" parent="1">
          <mxGeometry x="1210" y="130" width="120" height="60" as="geometry" />
        </mxCell>
        <mxCell id="BNZzz1rlV_T0hLlSipQ5-103" style="edgeStyle=orthogonalEdgeStyle;rounded=0;orthogonalLoop=1;jettySize=auto;html=1;entryX=1;entryY=0.5;entryDx=0;entryDy=0;endArrow=none;endFill=0;" edge="1" parent="1" source="BNZzz1rlV_T0hLlSipQ5-89" target="BNZzz1rlV_T0hLlSipQ5-101">
          <mxGeometry relative="1" as="geometry" />
        </mxCell>
        <mxCell id="ED75kGVRMtymTF9W4C5z-4" value="1,N" style="edgeLabel;html=1;align=center;verticalAlign=middle;resizable=0;points=[];" vertex="1" connectable="0" parent="BNZzz1rlV_T0hLlSipQ5-103">
          <mxGeometry x="-0.2423" y="-3" relative="1" as="geometry">
            <mxPoint x="-1" y="3" as="offset" />
          </mxGeometry>
        </mxCell>
        <mxCell id="BNZzz1rlV_T0hLlSipQ5-89" value="mantencion" style="whiteSpace=wrap;html=1;" vertex="1" parent="1">
          <mxGeometry x="1480" y="320" width="120" height="60" as="geometry" />
        </mxCell>
        <mxCell id="BNZzz1rlV_T0hLlSipQ5-109" style="edgeStyle=orthogonalEdgeStyle;rounded=0;orthogonalLoop=1;jettySize=auto;html=1;entryX=0.5;entryY=0;entryDx=0;entryDy=0;endArrow=none;endFill=0;" edge="1" parent="1" source="BNZzz1rlV_T0hLlSipQ5-90" target="BNZzz1rlV_T0hLlSipQ5-107">
          <mxGeometry relative="1" as="geometry" />
        </mxCell>
        <mxCell id="ED75kGVRMtymTF9W4C5z-2" value="1,N" style="edgeLabel;html=1;align=center;verticalAlign=middle;resizable=0;points=[];" vertex="1" connectable="0" parent="BNZzz1rlV_T0hLlSipQ5-109">
          <mxGeometry x="-0.7471" y="1" relative="1" as="geometry">
            <mxPoint as="offset" />
          </mxGeometry>
        </mxCell>
        <mxCell id="BNZzz1rlV_T0hLlSipQ5-90" value="ruta" style="whiteSpace=wrap;html=1;" vertex="1" parent="1">
          <mxGeometry x="1440" y="120" width="120" height="60" as="geometry" />
        </mxCell>
        <mxCell id="BNZzz1rlV_T0hLlSipQ5-92" value="envia" style="rhombus;whiteSpace=wrap;html=1;" vertex="1" parent="1">
          <mxGeometry x="985" y="230" width="50" height="50" as="geometry" />
        </mxCell>
        <mxCell id="BNZzz1rlV_T0hLlSipQ5-160" style="edgeStyle=orthogonalEdgeStyle;rounded=0;orthogonalLoop=1;jettySize=auto;html=1;endArrow=none;endFill=0;entryX=1;entryY=1;entryDx=0;entryDy=0;" edge="1" parent="1" source="BNZzz1rlV_T0hLlSipQ5-96" target="BNZzz1rlV_T0hLlSipQ5-85">
          <mxGeometry relative="1" as="geometry">
            <mxPoint x="1360" y="370" as="targetPoint" />
            <Array as="points">
              <mxPoint x="1310" y="380" />
            </Array>
          </mxGeometry>
        </mxCell>
        <mxCell id="BNZzz1rlV_T0hLlSipQ5-96" value="carga_Maxima" style="ellipse;whiteSpace=wrap;html=1;" vertex="1" parent="1">
          <mxGeometry x="1285" y="410" width="90" height="40" as="geometry" />
        </mxCell>
        <mxCell id="BNZzz1rlV_T0hLlSipQ5-98" value="conduce" style="rhombus;whiteSpace=wrap;html=1;" vertex="1" parent="1">
          <mxGeometry x="1237.5" y="225" width="65" height="60" as="geometry" />
        </mxCell>
        <mxCell id="BNZzz1rlV_T0hLlSipQ5-101" value="tiene" style="rhombus;whiteSpace=wrap;html=1;" vertex="1" parent="1">
          <mxGeometry x="1380" y="330" width="50" height="40" as="geometry" />
        </mxCell>
        <mxCell id="BNZzz1rlV_T0hLlSipQ5-157" style="edgeStyle=orthogonalEdgeStyle;rounded=0;orthogonalLoop=1;jettySize=auto;html=1;entryX=0.041;entryY=0.995;entryDx=0;entryDy=0;entryPerimeter=0;endArrow=none;endFill=0;" edge="1" parent="1" source="BNZzz1rlV_T0hLlSipQ5-105" target="BNZzz1rlV_T0hLlSipQ5-85">
          <mxGeometry relative="1" as="geometry" />
        </mxCell>
        <mxCell id="BNZzz1rlV_T0hLlSipQ5-105" value="disponibilidad" style="ellipse;whiteSpace=wrap;html=1;" vertex="1" parent="1">
          <mxGeometry x="1175" y="410" width="80" height="40" as="geometry" />
        </mxCell>
        <mxCell id="BNZzz1rlV_T0hLlSipQ5-161" style="edgeStyle=orthogonalEdgeStyle;rounded=0;orthogonalLoop=1;jettySize=auto;html=1;entryX=0.202;entryY=1.01;entryDx=0;entryDy=0;entryPerimeter=0;endArrow=none;endFill=0;" edge="1" parent="1" source="BNZzz1rlV_T0hLlSipQ5-106" target="BNZzz1rlV_T0hLlSipQ5-89">
          <mxGeometry relative="1" as="geometry" />
        </mxCell>
        <mxCell id="BNZzz1rlV_T0hLlSipQ5-106" value="fecha" style="ellipse;whiteSpace=wrap;html=1;" vertex="1" parent="1">
          <mxGeometry x="1480" y="400" width="50" height="35" as="geometry" />
        </mxCell>
        <mxCell id="BNZzz1rlV_T0hLlSipQ5-107" value="asigna" style="rhombus;whiteSpace=wrap;html=1;" vertex="1" parent="1">
          <mxGeometry x="1370" y="230" width="60" height="45" as="geometry" />
        </mxCell>
        <mxCell id="BNZzz1rlV_T0hLlSipQ5-110" value="transporta" style="rhombus;whiteSpace=wrap;html=1;" vertex="1" parent="1">
          <mxGeometry x="1110" y="317.5" width="70" height="65" as="geometry" />
        </mxCell>
        <mxCell id="BNZzz1rlV_T0hLlSipQ5-114" value="" style="ellipse;whiteSpace=wrap;html=1;" vertex="1" parent="1">
          <mxGeometry x="540" y="680" width="80" height="40" as="geometry" />
        </mxCell>
        <mxCell id="BNZzz1rlV_T0hLlSipQ5-115" value="" style="ellipse;whiteSpace=wrap;html=1;" vertex="1" parent="1">
          <mxGeometry x="620" y="620" width="10" height="40" as="geometry" />
        </mxCell>
        <mxCell id="BNZzz1rlV_T0hLlSipQ5-117" value="" style="ellipse;whiteSpace=wrap;html=1;" vertex="1" parent="1">
          <mxGeometry x="650" y="630" width="80" height="40" as="geometry" />
        </mxCell>
        <mxCell id="BNZzz1rlV_T0hLlSipQ5-118" value="" style="ellipse;whiteSpace=wrap;html=1;" vertex="1" parent="1">
          <mxGeometry x="660" y="640" width="80" height="40" as="geometry" />
        </mxCell>
        <mxCell id="BNZzz1rlV_T0hLlSipQ5-119" value="" style="ellipse;whiteSpace=wrap;html=1;" vertex="1" parent="1">
          <mxGeometry x="670" y="650" width="80" height="40" as="geometry" />
        </mxCell>
        <mxCell id="BNZzz1rlV_T0hLlSipQ5-120" value="" style="ellipse;whiteSpace=wrap;html=1;" vertex="1" parent="1">
          <mxGeometry x="680" y="660" width="80" height="40" as="geometry" />
        </mxCell>
        <mxCell id="BNZzz1rlV_T0hLlSipQ5-121" value="" style="ellipse;whiteSpace=wrap;html=1;" vertex="1" parent="1">
          <mxGeometry x="690" y="670" width="80" height="40" as="geometry" />
        </mxCell>
        <mxCell id="BNZzz1rlV_T0hLlSipQ5-122" value="" style="ellipse;whiteSpace=wrap;html=1;" vertex="1" parent="1">
          <mxGeometry x="700" y="680" width="80" height="40" as="geometry" />
        </mxCell>
        <mxCell id="BNZzz1rlV_T0hLlSipQ5-123" value="" style="ellipse;whiteSpace=wrap;html=1;" vertex="1" parent="1">
          <mxGeometry x="710" y="690" width="80" height="40" as="geometry" />
        </mxCell>
        <mxCell id="BNZzz1rlV_T0hLlSipQ5-124" value="" style="ellipse;whiteSpace=wrap;html=1;" vertex="1" parent="1">
          <mxGeometry x="720" y="700" width="80" height="40" as="geometry" />
        </mxCell>
        <mxCell id="BNZzz1rlV_T0hLlSipQ5-153" style="edgeStyle=orthogonalEdgeStyle;rounded=0;orthogonalLoop=1;jettySize=auto;html=1;endArrow=none;endFill=0;" edge="1" parent="1" source="BNZzz1rlV_T0hLlSipQ5-126">
          <mxGeometry relative="1" as="geometry">
            <mxPoint x="960" y="380" as="targetPoint" />
            <Array as="points">
              <mxPoint x="960" y="382" />
            </Array>
          </mxGeometry>
        </mxCell>
        <mxCell id="BNZzz1rlV_T0hLlSipQ5-126" value="id_carga" style="ellipse;whiteSpace=wrap;html=1;" vertex="1" parent="1">
          <mxGeometry x="900" y="400" width="60" height="20" as="geometry" />
        </mxCell>
        <mxCell id="BNZzz1rlV_T0hLlSipQ5-165" style="edgeStyle=orthogonalEdgeStyle;rounded=0;orthogonalLoop=1;jettySize=auto;html=1;endArrow=none;endFill=0;" edge="1" parent="1" source="BNZzz1rlV_T0hLlSipQ5-127">
          <mxGeometry relative="1" as="geometry">
            <mxPoint x="1460" y="120" as="targetPoint" />
            <Array as="points">
              <mxPoint x="1460" y="120" />
              <mxPoint x="1460" y="120" />
            </Array>
          </mxGeometry>
        </mxCell>
        <mxCell id="BNZzz1rlV_T0hLlSipQ5-127" value="origen" style="ellipse;whiteSpace=wrap;html=1;" vertex="1" parent="1">
          <mxGeometry x="1430" y="90" width="60" height="20" as="geometry" />
        </mxCell>
        <mxCell id="BNZzz1rlV_T0hLlSipQ5-173" style="edgeStyle=orthogonalEdgeStyle;rounded=0;orthogonalLoop=1;jettySize=auto;html=1;endArrow=none;endFill=0;" edge="1" parent="1" source="BNZzz1rlV_T0hLlSipQ5-128">
          <mxGeometry relative="1" as="geometry">
            <mxPoint x="1540" y="110" as="targetPoint" />
          </mxGeometry>
        </mxCell>
        <mxCell id="BNZzz1rlV_T0hLlSipQ5-128" value="destino" style="ellipse;whiteSpace=wrap;html=1;" vertex="1" parent="1">
          <mxGeometry x="1510" y="80" width="60" height="20" as="geometry" />
        </mxCell>
        <mxCell id="BNZzz1rlV_T0hLlSipQ5-166" style="edgeStyle=orthogonalEdgeStyle;rounded=0;orthogonalLoop=1;jettySize=auto;html=1;entryX=0.459;entryY=-0.014;entryDx=0;entryDy=0;entryPerimeter=0;endArrow=none;endFill=0;" edge="1" parent="1" source="BNZzz1rlV_T0hLlSipQ5-130" target="BNZzz1rlV_T0hLlSipQ5-90">
          <mxGeometry relative="1" as="geometry">
            <Array as="points">
              <mxPoint x="1495" y="89" />
              <mxPoint x="1495" y="89" />
            </Array>
          </mxGeometry>
        </mxCell>
        <mxCell id="BNZzz1rlV_T0hLlSipQ5-130" value="id_ruta" style="ellipse;whiteSpace=wrap;html=1;" vertex="1" parent="1">
          <mxGeometry x="1450" y="60" width="60" height="20" as="geometry" />
        </mxCell>
        <mxCell id="BNZzz1rlV_T0hLlSipQ5-155" style="edgeStyle=orthogonalEdgeStyle;rounded=0;orthogonalLoop=1;jettySize=auto;html=1;endArrow=none;endFill=0;" edge="1" parent="1" source="BNZzz1rlV_T0hLlSipQ5-143">
          <mxGeometry relative="1" as="geometry">
            <mxPoint x="995" y="379" as="targetPoint" />
            <Array as="points">
              <mxPoint x="995" y="379" />
            </Array>
          </mxGeometry>
        </mxCell>
        <mxCell id="BNZzz1rlV_T0hLlSipQ5-143" value="peso" style="ellipse;whiteSpace=wrap;html=1;" vertex="1" parent="1">
          <mxGeometry x="970" y="400" width="50" height="20" as="geometry" />
        </mxCell>
        <mxCell id="xfLGE9NXxhEQsa4HN617-1" style="edgeStyle=orthogonalEdgeStyle;rounded=0;orthogonalLoop=1;jettySize=auto;html=1;entryX=0.75;entryY=0;entryDx=0;entryDy=0;endArrow=none;endFill=0;" edge="1" parent="1" source="BNZzz1rlV_T0hLlSipQ5-145" target="BNZzz1rlV_T0hLlSipQ5-87">
          <mxGeometry relative="1" as="geometry">
            <Array as="points">
              <mxPoint x="1300" y="109" />
              <mxPoint x="1300" y="109" />
            </Array>
          </mxGeometry>
        </mxCell>
        <mxCell id="BNZzz1rlV_T0hLlSipQ5-145" value="telefono" style="ellipse;whiteSpace=wrap;html=1;" vertex="1" parent="1">
          <mxGeometry x="1255" y="40" width="80" height="40" as="geometry" />
        </mxCell>
        <mxCell id="BNZzz1rlV_T0hLlSipQ5-171" style="edgeStyle=orthogonalEdgeStyle;rounded=0;orthogonalLoop=1;jettySize=auto;html=1;entryX=0.337;entryY=0.999;entryDx=0;entryDy=0;entryPerimeter=0;endArrow=none;endFill=0;" edge="1" parent="1" source="BNZzz1rlV_T0hLlSipQ5-146" target="BNZzz1rlV_T0hLlSipQ5-90">
          <mxGeometry relative="1" as="geometry" />
        </mxCell>
        <mxCell id="BNZzz1rlV_T0hLlSipQ5-146" value="distancia" style="ellipse;whiteSpace=wrap;html=1;" vertex="1" parent="1">
          <mxGeometry x="1440" y="200" width="80" height="20" as="geometry" />
        </mxCell>
        <mxCell id="BNZzz1rlV_T0hLlSipQ5-156" style="edgeStyle=orthogonalEdgeStyle;rounded=0;orthogonalLoop=1;jettySize=auto;html=1;entryX=0.824;entryY=1.006;entryDx=0;entryDy=0;entryPerimeter=0;endArrow=none;endFill=0;" edge="1" parent="1" source="BNZzz1rlV_T0hLlSipQ5-147" target="BNZzz1rlV_T0hLlSipQ5-84">
          <mxGeometry relative="1" as="geometry">
            <mxPoint x="1046" y="400" as="targetPoint" />
            <Array as="points">
              <mxPoint x="1046" y="445" />
              <mxPoint x="1046" y="380" />
            </Array>
          </mxGeometry>
        </mxCell>
        <mxCell id="BNZzz1rlV_T0hLlSipQ5-147" value="plazo_entrega" style="ellipse;whiteSpace=wrap;html=1;" vertex="1" parent="1">
          <mxGeometry x="945" y="430" width="90" height="30" as="geometry" />
        </mxCell>
        <mxCell id="BNZzz1rlV_T0hLlSipQ5-164" style="edgeStyle=orthogonalEdgeStyle;rounded=0;orthogonalLoop=1;jettySize=auto;html=1;endArrow=none;endFill=0;" edge="1" parent="1" source="BNZzz1rlV_T0hLlSipQ5-148">
          <mxGeometry relative="1" as="geometry">
            <mxPoint x="1555" y="380" as="targetPoint" />
          </mxGeometry>
        </mxCell>
        <mxCell id="BNZzz1rlV_T0hLlSipQ5-148" value="id_mantencion" style="ellipse;whiteSpace=wrap;html=1;" vertex="1" parent="1">
          <mxGeometry x="1540" y="407.5" width="100" height="20" as="geometry" />
        </mxCell>
        <mxCell id="BNZzz1rlV_T0hLlSipQ5-169" style="edgeStyle=orthogonalEdgeStyle;rounded=0;orthogonalLoop=1;jettySize=auto;html=1;entryX=0.806;entryY=0.969;entryDx=0;entryDy=0;entryPerimeter=0;endArrow=none;endFill=0;" edge="1" parent="1" source="BNZzz1rlV_T0hLlSipQ5-149" target="BNZzz1rlV_T0hLlSipQ5-90">
          <mxGeometry relative="1" as="geometry">
            <Array as="points">
              <mxPoint x="1538" y="178" />
            </Array>
          </mxGeometry>
        </mxCell>
        <mxCell id="BNZzz1rlV_T0hLlSipQ5-149" value="costo_combustible" style="ellipse;whiteSpace=wrap;html=1;" vertex="1" parent="1">
          <mxGeometry x="1530" y="200" width="120" height="20" as="geometry" />
        </mxCell>
        <mxCell id="BNZzz1rlV_T0hLlSipQ5-168" style="edgeStyle=orthogonalEdgeStyle;rounded=0;orthogonalLoop=1;jettySize=auto;html=1;entryX=0.996;entryY=0.664;entryDx=0;entryDy=0;entryPerimeter=0;endArrow=none;endFill=0;" edge="1" parent="1" source="BNZzz1rlV_T0hLlSipQ5-150" target="BNZzz1rlV_T0hLlSipQ5-90">
          <mxGeometry relative="1" as="geometry" />
        </mxCell>
        <mxCell id="BNZzz1rlV_T0hLlSipQ5-150" value="costo_conductor" style="ellipse;whiteSpace=wrap;html=1;" vertex="1" parent="1">
          <mxGeometry x="1580" y="145" width="100" height="30" as="geometry" />
        </mxCell>
        <mxCell id="BNZzz1rlV_T0hLlSipQ5-158" style="edgeStyle=orthogonalEdgeStyle;rounded=0;orthogonalLoop=1;jettySize=auto;html=1;endArrow=none;endFill=0;" edge="1" parent="1" source="BNZzz1rlV_T0hLlSipQ5-152" target="BNZzz1rlV_T0hLlSipQ5-85">
          <mxGeometry relative="1" as="geometry" />
        </mxCell>
        <mxCell id="BNZzz1rlV_T0hLlSipQ5-152" value="id_camion" style="ellipse;whiteSpace=wrap;html=1;" vertex="1" parent="1">
          <mxGeometry x="1232.5" y="395" width="75" height="20" as="geometry" />
        </mxCell>
        <mxCell id="6EVmqp9yAp4Sq5_GeR_r-1" value="estado" style="ellipse;whiteSpace=wrap;html=1;" vertex="1" parent="1">
          <mxGeometry x="1060" y="400" width="50" height="20" as="geometry" />
        </mxCell>
        <mxCell id="cYYF3UnhfoyRNSo5AR6V-7" style="edgeStyle=orthogonalEdgeStyle;rounded=0;orthogonalLoop=1;jettySize=auto;html=1;endArrow=none;endFill=0;" edge="1" parent="1" source="cYYF3UnhfoyRNSo5AR6V-1">
          <mxGeometry relative="1" as="geometry">
            <mxPoint x="975" y="129" as="targetPoint" />
          </mxGeometry>
        </mxCell>
        <mxCell id="cYYF3UnhfoyRNSo5AR6V-1" value="id_cliente" style="ellipse;whiteSpace=wrap;html=1;" vertex="1" parent="1">
          <mxGeometry x="935" y="80" width="80" height="20" as="geometry" />
        </mxCell>
        <mxCell id="cYYF3UnhfoyRNSo5AR6V-8" style="edgeStyle=orthogonalEdgeStyle;rounded=0;orthogonalLoop=1;jettySize=auto;html=1;entryX=0.832;entryY=0.006;entryDx=0;entryDy=0;entryPerimeter=0;endArrow=none;endFill=0;" edge="1" parent="1" source="cYYF3UnhfoyRNSo5AR6V-2" target="BNZzz1rlV_T0hLlSipQ5-83">
          <mxGeometry relative="1" as="geometry" />
        </mxCell>
        <mxCell id="cYYF3UnhfoyRNSo5AR6V-2" value="nombre" style="ellipse;whiteSpace=wrap;html=1;" vertex="1" parent="1">
          <mxGeometry x="1020" y="80" width="60" height="20" as="geometry" />
        </mxCell>
        <mxCell id="cYYF3UnhfoyRNSo5AR6V-9" style="edgeStyle=orthogonalEdgeStyle;rounded=0;orthogonalLoop=1;jettySize=auto;html=1;entryX=0.383;entryY=0.012;entryDx=0;entryDy=0;entryPerimeter=0;endArrow=none;endFill=0;" edge="1" parent="1" source="cYYF3UnhfoyRNSo5AR6V-3" target="BNZzz1rlV_T0hLlSipQ5-87">
          <mxGeometry relative="1" as="geometry" />
        </mxCell>
        <mxCell id="cYYF3UnhfoyRNSo5AR6V-3" value="nombre" style="ellipse;whiteSpace=wrap;html=1;" vertex="1" parent="1">
          <mxGeometry x="1225" y="90" width="60" height="20" as="geometry" />
        </mxCell>
        <mxCell id="cYYF3UnhfoyRNSo5AR6V-10" style="edgeStyle=orthogonalEdgeStyle;rounded=0;orthogonalLoop=1;jettySize=auto;html=1;endArrow=none;endFill=0;" edge="1" parent="1" source="cYYF3UnhfoyRNSo5AR6V-4">
          <mxGeometry relative="1" as="geometry">
            <mxPoint x="1311" y="130" as="targetPoint" />
            <Array as="points">
              <mxPoint x="1311" y="130" />
              <mxPoint x="1312" y="130" />
            </Array>
          </mxGeometry>
        </mxCell>
        <mxCell id="cYYF3UnhfoyRNSo5AR6V-4" value="id_conductor" style="ellipse;whiteSpace=wrap;html=1;" vertex="1" parent="1">
          <mxGeometry x="1307.5" y="90" width="80" height="20" as="geometry" />
        </mxCell>
      </root>
    </mxGraphModel>
  </diagram>
  <diagram id="SV97IWDhF6bHyMwjtB5S" name="MR">
    <mxGraphModel dx="841" dy="468" grid="0" gridSize="10" guides="1" tooltips="1" connect="1" arrows="1" fold="1" page="1" pageScale="1" pageWidth="827" pageHeight="1169" math="0" shadow="0">
      <root>
        <mxCell id="0" />
        <mxCell id="1" parent="0" />
        <mxCell id="yWCVjile42t-iALybACu-1" value="Cliente" style="swimlane;fontStyle=0;childLayout=stackLayout;horizontal=1;startSize=26;fillColor=none;horizontalStack=0;resizeParent=1;resizeParentMax=0;resizeLast=0;collapsible=1;marginBottom=0;whiteSpace=wrap;html=1;" vertex="1" parent="1">
          <mxGeometry x="80" y="240" width="140" height="78" as="geometry" />
        </mxCell>
        <mxCell id="yWCVjile42t-iALybACu-2" value="PK id_cliente(int)" style="text;strokeColor=#6c8ebf;fillColor=#dae8fc;align=left;verticalAlign=top;spacingLeft=4;spacingRight=4;overflow=hidden;rotatable=0;points=[[0,0.5],[1,0.5]];portConstraint=eastwest;whiteSpace=wrap;html=1;" vertex="1" parent="yWCVjile42t-iALybACu-1">
          <mxGeometry y="26" width="140" height="26" as="geometry" />
        </mxCell>
        <mxCell id="yWCVjile42t-iALybACu-3" value="nombre(text)" style="text;strokeColor=none;fillColor=none;align=left;verticalAlign=top;spacingLeft=4;spacingRight=4;overflow=hidden;rotatable=0;points=[[0,0.5],[1,0.5]];portConstraint=eastwest;whiteSpace=wrap;html=1;" vertex="1" parent="yWCVjile42t-iALybACu-1">
          <mxGeometry y="52" width="140" height="26" as="geometry" />
        </mxCell>
        <mxCell id="yWCVjile42t-iALybACu-5" value="Conductor" style="swimlane;fontStyle=0;childLayout=stackLayout;horizontal=1;startSize=26;fillColor=none;horizontalStack=0;resizeParent=1;resizeParentMax=0;resizeLast=0;collapsible=1;marginBottom=0;whiteSpace=wrap;html=1;" vertex="1" parent="1">
          <mxGeometry x="320" y="240" width="140" height="104" as="geometry" />
        </mxCell>
        <mxCell id="yWCVjile42t-iALybACu-6" value="PK id_conductor(int)" style="text;strokeColor=#6c8ebf;fillColor=#dae8fc;align=left;verticalAlign=top;spacingLeft=4;spacingRight=4;overflow=hidden;rotatable=0;points=[[0,0.5],[1,0.5]];portConstraint=eastwest;whiteSpace=wrap;html=1;" vertex="1" parent="yWCVjile42t-iALybACu-5">
          <mxGeometry y="26" width="140" height="26" as="geometry" />
        </mxCell>
        <mxCell id="yWCVjile42t-iALybACu-7" value="nombre(text)" style="text;strokeColor=none;fillColor=none;align=left;verticalAlign=top;spacingLeft=4;spacingRight=4;overflow=hidden;rotatable=0;points=[[0,0.5],[1,0.5]];portConstraint=eastwest;whiteSpace=wrap;html=1;" vertex="1" parent="yWCVjile42t-iALybACu-5">
          <mxGeometry y="52" width="140" height="26" as="geometry" />
        </mxCell>
        <mxCell id="yWCVjile42t-iALybACu-8" value="telefono(text)" style="text;strokeColor=none;fillColor=none;align=left;verticalAlign=top;spacingLeft=4;spacingRight=4;overflow=hidden;rotatable=0;points=[[0,0.5],[1,0.5]];portConstraint=eastwest;whiteSpace=wrap;html=1;" vertex="1" parent="yWCVjile42t-iALybACu-5">
          <mxGeometry y="78" width="140" height="26" as="geometry" />
        </mxCell>
        <mxCell id="yWCVjile42t-iALybACu-9" value="Carga" style="swimlane;fontStyle=0;childLayout=stackLayout;horizontal=1;startSize=26;fillColor=none;horizontalStack=0;resizeParent=1;resizeParentMax=0;resizeLast=0;collapsible=1;marginBottom=0;whiteSpace=wrap;html=1;" vertex="1" parent="1">
          <mxGeometry x="80" y="500" width="140" height="182" as="geometry" />
        </mxCell>
        <mxCell id="yWCVjile42t-iALybACu-10" value="PK id_carga(int)" style="text;strokeColor=#6c8ebf;fillColor=#dae8fc;align=left;verticalAlign=top;spacingLeft=4;spacingRight=4;overflow=hidden;rotatable=0;points=[[0,0.5],[1,0.5]];portConstraint=eastwest;whiteSpace=wrap;html=1;" vertex="1" parent="yWCVjile42t-iALybACu-9">
          <mxGeometry y="26" width="140" height="26" as="geometry" />
        </mxCell>
        <mxCell id="AniHjmq9KjE3B__72JDv-1" value="estado(int)" style="text;strokeColor=none;fillColor=none;align=left;verticalAlign=top;spacingLeft=4;spacingRight=4;overflow=hidden;rotatable=0;points=[[0,0.5],[1,0.5]];portConstraint=eastwest;whiteSpace=wrap;html=1;" vertex="1" parent="yWCVjile42t-iALybACu-9">
          <mxGeometry y="52" width="140" height="26" as="geometry" />
        </mxCell>
        <mxCell id="yWCVjile42t-iALybACu-11" value="peso(int)" style="text;strokeColor=none;fillColor=none;align=left;verticalAlign=top;spacingLeft=4;spacingRight=4;overflow=hidden;rotatable=0;points=[[0,0.5],[1,0.5]];portConstraint=eastwest;whiteSpace=wrap;html=1;" vertex="1" parent="yWCVjile42t-iALybACu-9">
          <mxGeometry y="78" width="140" height="26" as="geometry" />
        </mxCell>
        <mxCell id="yWCVjile42t-iALybACu-12" value="plazo_entrega(date)" style="text;strokeColor=none;fillColor=none;align=left;verticalAlign=top;spacingLeft=4;spacingRight=4;overflow=hidden;rotatable=0;points=[[0,0.5],[1,0.5]];portConstraint=eastwest;whiteSpace=wrap;html=1;" vertex="1" parent="yWCVjile42t-iALybACu-9">
          <mxGeometry y="104" width="140" height="26" as="geometry" />
        </mxCell>
        <mxCell id="EuzSUUNEx788iVfPUuzr-1" value="FK id_cliente(int)" style="text;strokeColor=#b85450;fillColor=#f8cecc;align=left;verticalAlign=top;spacingLeft=4;spacingRight=4;overflow=hidden;rotatable=0;points=[[0,0.5],[1,0.5]];portConstraint=eastwest;whiteSpace=wrap;html=1;" vertex="1" parent="yWCVjile42t-iALybACu-9">
          <mxGeometry y="130" width="140" height="26" as="geometry" />
        </mxCell>
        <mxCell id="7DqnFybo46dXQaPhsU2y-1" value="FK id_camion(int)" style="text;strokeColor=#b85450;fillColor=#f8cecc;align=left;verticalAlign=top;spacingLeft=4;spacingRight=4;overflow=hidden;rotatable=0;points=[[0,0.5],[1,0.5]];portConstraint=eastwest;whiteSpace=wrap;html=1;" vertex="1" parent="yWCVjile42t-iALybACu-9">
          <mxGeometry y="156" width="140" height="26" as="geometry" />
        </mxCell>
        <mxCell id="yWCVjile42t-iALybACu-13" value="Camion" style="swimlane;fontStyle=0;childLayout=stackLayout;horizontal=1;startSize=26;fillColor=none;horizontalStack=0;resizeParent=1;resizeParentMax=0;resizeLast=0;collapsible=1;marginBottom=0;whiteSpace=wrap;html=1;" vertex="1" parent="1">
          <mxGeometry x="320" y="500" width="140" height="130" as="geometry" />
        </mxCell>
        <mxCell id="yWCVjile42t-iALybACu-14" value="PK id_camion(int)" style="text;strokeColor=#6c8ebf;fillColor=#dae8fc;align=left;verticalAlign=top;spacingLeft=4;spacingRight=4;overflow=hidden;rotatable=0;points=[[0,0.5],[1,0.5]];portConstraint=eastwest;whiteSpace=wrap;html=1;" vertex="1" parent="yWCVjile42t-iALybACu-13">
          <mxGeometry y="26" width="140" height="26" as="geometry" />
        </mxCell>
        <mxCell id="yWCVjile42t-iALybACu-15" value="disponibilidad(int)" style="text;strokeColor=none;fillColor=none;align=left;verticalAlign=top;spacingLeft=4;spacingRight=4;overflow=hidden;rotatable=0;points=[[0,0.5],[1,0.5]];portConstraint=eastwest;whiteSpace=wrap;html=1;" vertex="1" parent="yWCVjile42t-iALybACu-13">
          <mxGeometry y="52" width="140" height="26" as="geometry" />
        </mxCell>
        <mxCell id="yWCVjile42t-iALybACu-16" value="carga_maxima(int)" style="text;strokeColor=none;fillColor=none;align=left;verticalAlign=top;spacingLeft=4;spacingRight=4;overflow=hidden;rotatable=0;points=[[0,0.5],[1,0.5]];portConstraint=eastwest;whiteSpace=wrap;html=1;" vertex="1" parent="yWCVjile42t-iALybACu-13">
          <mxGeometry y="78" width="140" height="26" as="geometry" />
        </mxCell>
        <mxCell id="kGfYiH3NTSthtjCei00x-1" value="FK id_conductor(int)" style="text;strokeColor=#b85450;fillColor=#f8cecc;align=left;verticalAlign=top;spacingLeft=4;spacingRight=4;overflow=hidden;rotatable=0;points=[[0,0.5],[1,0.5]];portConstraint=eastwest;whiteSpace=wrap;html=1;" vertex="1" parent="yWCVjile42t-iALybACu-13">
          <mxGeometry y="104" width="140" height="26" as="geometry" />
        </mxCell>
        <mxCell id="yWCVjile42t-iALybACu-17" value="Ruta" style="swimlane;fontStyle=0;childLayout=stackLayout;horizontal=1;startSize=26;fillColor=none;horizontalStack=0;resizeParent=1;resizeParentMax=0;resizeLast=0;collapsible=1;marginBottom=0;whiteSpace=wrap;html=1;" vertex="1" parent="1">
          <mxGeometry x="560" y="240" width="140" height="208" as="geometry" />
        </mxCell>
        <mxCell id="yWCVjile42t-iALybACu-18" value="PK id_ruta(int)" style="text;strokeColor=#6c8ebf;fillColor=#dae8fc;align=left;verticalAlign=top;spacingLeft=4;spacingRight=4;overflow=hidden;rotatable=0;points=[[0,0.5],[1,0.5]];portConstraint=eastwest;whiteSpace=wrap;html=1;" vertex="1" parent="yWCVjile42t-iALybACu-17">
          <mxGeometry y="26" width="140" height="26" as="geometry" />
        </mxCell>
        <mxCell id="yWCVjile42t-iALybACu-19" value="origen(text)" style="text;strokeColor=none;fillColor=none;align=left;verticalAlign=top;spacingLeft=4;spacingRight=4;overflow=hidden;rotatable=0;points=[[0,0.5],[1,0.5]];portConstraint=eastwest;whiteSpace=wrap;html=1;" vertex="1" parent="yWCVjile42t-iALybACu-17">
          <mxGeometry y="52" width="140" height="26" as="geometry" />
        </mxCell>
        <mxCell id="MYtotM-81bNXdaTAgvih-2" value="destino(text)" style="text;strokeColor=none;fillColor=none;align=left;verticalAlign=top;spacingLeft=4;spacingRight=4;overflow=hidden;rotatable=0;points=[[0,0.5],[1,0.5]];portConstraint=eastwest;whiteSpace=wrap;html=1;" vertex="1" parent="yWCVjile42t-iALybACu-17">
          <mxGeometry y="78" width="140" height="26" as="geometry" />
        </mxCell>
        <mxCell id="yWCVjile42t-iALybACu-20" value="costo_conductor(int)" style="text;strokeColor=none;fillColor=none;align=left;verticalAlign=top;spacingLeft=4;spacingRight=4;overflow=hidden;rotatable=0;points=[[0,0.5],[1,0.5]];portConstraint=eastwest;whiteSpace=wrap;html=1;" vertex="1" parent="yWCVjile42t-iALybACu-17">
          <mxGeometry y="104" width="140" height="26" as="geometry" />
        </mxCell>
        <mxCell id="7O5xsCFGskDQoHMO2kpn-2" value="costo_combustible(int)" style="text;strokeColor=none;fillColor=none;align=left;verticalAlign=top;spacingLeft=4;spacingRight=4;overflow=hidden;rotatable=0;points=[[0,0.5],[1,0.5]];portConstraint=eastwest;whiteSpace=wrap;html=1;" vertex="1" parent="yWCVjile42t-iALybACu-17">
          <mxGeometry y="130" width="140" height="26" as="geometry" />
        </mxCell>
        <mxCell id="7O5xsCFGskDQoHMO2kpn-3" value="distancia(int)" style="text;strokeColor=none;fillColor=none;align=left;verticalAlign=top;spacingLeft=4;spacingRight=4;overflow=hidden;rotatable=0;points=[[0,0.5],[1,0.5]];portConstraint=eastwest;whiteSpace=wrap;html=1;" vertex="1" parent="yWCVjile42t-iALybACu-17">
          <mxGeometry y="156" width="140" height="26" as="geometry" />
        </mxCell>
        <mxCell id="kbGvtv0PP1_fiMeTdGLa-1" value="FK id_camion(int)" style="text;strokeColor=#b85450;fillColor=#f8cecc;align=left;verticalAlign=top;spacingLeft=4;spacingRight=4;overflow=hidden;rotatable=0;points=[[0,0.5],[1,0.5]];portConstraint=eastwest;whiteSpace=wrap;html=1;" vertex="1" parent="yWCVjile42t-iALybACu-17">
          <mxGeometry y="182" width="140" height="26" as="geometry" />
        </mxCell>
        <mxCell id="yWCVjile42t-iALybACu-21" value="Mantencion" style="swimlane;fontStyle=0;childLayout=stackLayout;horizontal=1;startSize=26;fillColor=none;horizontalStack=0;resizeParent=1;resizeParentMax=0;resizeLast=0;collapsible=1;marginBottom=0;whiteSpace=wrap;html=1;" vertex="1" parent="1">
          <mxGeometry x="560" y="500" width="140" height="104" as="geometry" />
        </mxCell>
        <mxCell id="yWCVjile42t-iALybACu-22" value="PK id_mantencion(int)" style="text;strokeColor=#6c8ebf;fillColor=#dae8fc;align=left;verticalAlign=top;spacingLeft=4;spacingRight=4;overflow=hidden;rotatable=0;points=[[0,0.5],[1,0.5]];portConstraint=eastwest;whiteSpace=wrap;html=1;" vertex="1" parent="yWCVjile42t-iALybACu-21">
          <mxGeometry y="26" width="140" height="26" as="geometry" />
        </mxCell>
        <mxCell id="yWCVjile42t-iALybACu-23" value="fecha(date)" style="text;strokeColor=none;fillColor=none;align=left;verticalAlign=top;spacingLeft=4;spacingRight=4;overflow=hidden;rotatable=0;points=[[0,0.5],[1,0.5]];portConstraint=eastwest;whiteSpace=wrap;html=1;" vertex="1" parent="yWCVjile42t-iALybACu-21">
          <mxGeometry y="52" width="140" height="26" as="geometry" />
        </mxCell>
        <mxCell id="RaijcXdEiiH5bSKkbicM-1" value="FK id_camion(int)" style="text;strokeColor=#b85450;fillColor=#f8cecc;align=left;verticalAlign=top;spacingLeft=4;spacingRight=4;overflow=hidden;rotatable=0;points=[[0,0.5],[1,0.5]];portConstraint=eastwest;whiteSpace=wrap;html=1;" vertex="1" parent="yWCVjile42t-iALybACu-21">
          <mxGeometry y="78" width="140" height="26" as="geometry" />
        </mxCell>
        <mxCell id="kbGvtv0PP1_fiMeTdGLa-4" style="edgeStyle=orthogonalEdgeStyle;rounded=0;orthogonalLoop=1;jettySize=auto;html=1;entryX=0;entryY=0.5;entryDx=0;entryDy=0;endArrow=none;endFill=0;dashed=1;" edge="1" parent="1" source="yWCVjile42t-iALybACu-2" target="EuzSUUNEx788iVfPUuzr-1">
          <mxGeometry relative="1" as="geometry">
            <mxPoint x="30.000000000000114" y="410" as="targetPoint" />
          </mxGeometry>
        </mxCell>
        <mxCell id="59Hk3P-ibZj5cvsE-i69-1" style="edgeStyle=orthogonalEdgeStyle;rounded=0;orthogonalLoop=1;jettySize=auto;html=1;entryX=0;entryY=0.5;entryDx=0;entryDy=0;endArrow=none;endFill=0;dashed=1;" edge="1" parent="1" source="7DqnFybo46dXQaPhsU2y-1" target="yWCVjile42t-iALybACu-14">
          <mxGeometry relative="1" as="geometry" />
        </mxCell>
        <mxCell id="59Hk3P-ibZj5cvsE-i69-2" style="edgeStyle=orthogonalEdgeStyle;rounded=0;orthogonalLoop=1;jettySize=auto;html=1;endArrow=none;endFill=0;dashed=1;" edge="1" parent="1" source="yWCVjile42t-iALybACu-6">
          <mxGeometry relative="1" as="geometry">
            <mxPoint x="320" y="617" as="targetPoint" />
            <Array as="points">
              <mxPoint x="300" y="279" />
              <mxPoint x="300" y="617" />
            </Array>
          </mxGeometry>
        </mxCell>
        <mxCell id="59Hk3P-ibZj5cvsE-i69-3" style="edgeStyle=orthogonalEdgeStyle;rounded=0;orthogonalLoop=1;jettySize=auto;html=1;entryX=1;entryY=0.5;entryDx=0;entryDy=0;endArrow=none;endFill=0;dashed=1;" edge="1" parent="1" source="RaijcXdEiiH5bSKkbicM-1" target="yWCVjile42t-iALybACu-14">
          <mxGeometry relative="1" as="geometry" />
        </mxCell>
        <mxCell id="59Hk3P-ibZj5cvsE-i69-5" style="edgeStyle=orthogonalEdgeStyle;rounded=0;orthogonalLoop=1;jettySize=auto;html=1;endArrow=none;endFill=0;dashed=1;" edge="1" parent="1" source="yWCVjile42t-iALybACu-14" target="kbGvtv0PP1_fiMeTdGLa-1">
          <mxGeometry relative="1" as="geometry" />
        </mxCell>
      </root>
    </mxGraphModel>
  </diagram>
</mxfile>
